<?xml version="1.0" encoding="UTF-8"?>
<svg version="1.1" xmlns="http://www.w3.org/2000/svg" width="480" height="480">
<path d="M0 0 C158.4 0 316.8 0 480 0 C480 158.4 480 316.8 480 480 C321.6 480 163.2 480 0 480 C0 321.6 0 163.2 0 0 Z " fill="#FEFEFE" transform="translate(0,0)"/>
<path d="M0 0 C7.65013233 2.11599405 14.02611057 10.74638809 19.5 16.25 C20.21607422 16.96220703 20.93214844 17.67441406 21.66992188 18.40820312 C26.29825234 23.04495639 30.69783152 27.81858456 34.9375 32.8125 C35.46625732 33.43455322 35.99501465 34.05660645 36.53979492 34.69750977 C56.49772509 58.40239036 73.13334668 84.72001972 77.9375 115.8125 C78.06769531 116.57691406 78.19789063 117.34132813 78.33203125 118.12890625 C81.75357667 140.711106 73.97337606 164.31023795 60.94921875 182.60546875 C44.90028462 203.06710416 22.41814307 221.95046423 -1.57421875 232.33203125 C-4.27593129 233.61224548 -4.27593129 233.61224548 -5.19921875 236.4140625 C-5.38097656 237.41179687 -5.56273437 238.40953125 -5.75 239.4375 C-6.08064453 241.03078125 -6.08064453 241.03078125 -6.41796875 242.65625 C-6.73701172 244.21859375 -6.73701172 244.21859375 -7.0625 245.8125 C-7.52896936 247.53029193 -8.02529945 249.24049725 -8.5625 250.9375 C-8.7790625 251.64132812 -8.995625 252.34515625 -9.21875 253.0703125 C-10.0625 254.8125 -10.0625 254.8125 -13.0625 256.8125 C-15.88262004 257.165015 -17.39488374 257.29832404 -19.7265625 255.6015625 C-22.01608294 252.53547957 -21.02230749 249.58776405 -20.58984375 245.953125 C-19.72852932 240.82351906 -18.4524755 235.821657 -17.0625 230.8125 C-17.89136719 230.57273437 -18.72023438 230.33296875 -19.57421875 230.0859375 C-23.64577952 228.59956705 -27.16169185 226.65083843 -30.875 224.4375 C-31.61202148 223.99905762 -32.34904297 223.56061523 -33.10839844 223.10888672 C-46.5668821 214.98069347 -58.96378114 205.97346194 -70.0625 194.8125 C-70.89394531 193.98105469 -71.72539062 193.14960938 -72.58203125 192.29296875 C-89.78575017 174.15139803 -97.75592559 150.80063671 -97.53295898 126.17480469 C-96.52724694 90.7415581 -75.85941417 62.66575134 -51.07714844 39.01879883 C-44.30735383 32.6428745 -37.39081031 26.54361447 -30.0625 20.8125 C-28.60935351 19.66408969 -27.15623053 18.51564964 -25.703125 17.3671875 C-24.115239 16.11895713 -22.52669449 14.87156403 -20.9375 13.625 C-19.82689209 12.75089478 -19.82689209 12.75089478 -18.69384766 11.85913086 C-5.25675649 1.39464968 -5.25675649 1.39464968 0 0 Z " fill="#01AA14" transform="translate(249.0625,72.1875)"/>
<path d="M0 0 C3.875 1.875 3.875 1.875 5 3 C4.7976474 5.12470227 4.58643318 7.24903974 4.32421875 9.3671875 C3.98818154 12.09597156 3.70643882 14.82633982 3.4375 17.5625 C3.35371094 18.40941406 3.26992187 19.25632813 3.18359375 20.12890625 C3.09271484 21.05509766 3.09271484 21.05509766 3 22 C3.56847656 22.21914062 4.13695312 22.43828125 4.72265625 22.6640625 C13.33845341 26.20243662 18.90832431 30.35201709 22.90234375 38.91796875 C24.2109088 42.59219589 24.97449247 46.31319788 25.75 50.125 C27.54900117 58.84063382 31.30618099 65.62605536 35.90576172 73.16162109 C37.54678072 75.91862089 38.9988456 78.75829554 40.4375 81.625 C40.88996094 82.52476562 41.34242188 83.42453125 41.80859375 84.3515625 C46.31599162 94.3712863 47.33919976 108.23192313 43.375 118.6875 C42.2578125 120.91015625 42.2578125 120.91015625 41 123 C40.56429687 123.76183594 40.12859375 124.52367187 39.6796875 125.30859375 C31.92825504 137.86760863 21.11516096 145.07536293 6.77734375 148.53125 C-6.66648171 150.80025008 -19.81579744 147.76180383 -31 140 C-40.86853903 131.85952641 -47.79591246 121.8093656 -49.23583984 108.8828125 C-50.24750586 92.84224513 -45.12779272 81.36853779 -37.18359375 67.7265625 C-36.82136719 67.10185059 -36.45914063 66.47713867 -36.0859375 65.83349609 C-35.37708017 64.63666188 -34.64856501 63.45119438 -33.8984375 62.27978516 C-31.05129995 57.70309034 -30.05201901 53.39589226 -29.125 48.125 C-27.07614026 37.95490546 -23.67203093 31.19442917 -14.96875 25.15234375 C-12.41538135 23.6578125 -9.8652536 22.7163134 -7 22 C-6.95101562 21.20335937 -6.90203125 20.40671875 -6.8515625 19.5859375 C-5.90180236 6.12554382 -5.90180236 6.12554382 -1.875 1.625 C-1.25625 1.08875 -0.6375 0.5525 0 0 Z " fill="#FCFEFC" transform="translate(241,114)"/>
<path d="M0 0 C9.32052782 5.10573031 15.96343838 13.9170582 19 24 C20.06481581 32.52857193 19.41906483 39.96869322 14.55859375 47.12109375 C9.84365303 53.08314176 4.83503487 56.192981 -2.66796875 57.4453125 C-10.1024251 57.92766087 -15.2879553 55.69130025 -21 51 C-27.4555747 44.22619274 -28.47153416 36.64455578 -28.30859375 27.5390625 C-27.53671494 18.68688277 -23.5761436 11.87501064 -17 6 C-6.74022072 -1.96325892 -6.74022072 -1.96325892 0 0 Z " fill="#02AA15" transform="translate(244,186)"/>
<path d="M0 0 C4.62 0 9.24 0 14 0 C17.29453963 7.81616594 20.44930647 15.65938092 23.42578125 23.6015625 C24.01446236 25.16709366 24.01446236 25.16709366 24.61503601 26.76425171 C25.43367391 28.94349295 26.25119527 31.12315392 27.06762695 33.30322266 C28.32295448 36.65289637 29.5841642 40.00031763 30.84570312 43.34765625 C31.64358384 45.47382527 32.44112258 47.60012266 33.23828125 49.7265625 C33.61632401 50.72853668 33.99436676 51.73051086 34.38386536 52.7628479 C34.72810043 53.68496063 35.07233551 54.60707336 35.42700195 55.55712891 C35.731689 56.36920807 36.03637604 57.18128723 36.35029602 58.01797485 C37 60 37 60 37 62 C32.71 62 28.42 62 24 62 C22.35 57.71 20.7 53.42 19 49 C11.08 49 3.16 49 -5 49 C-6.65 53.29 -8.3 57.58 -10 62 C-13.96 62 -17.92 62 -22 62 C-20.68057659 55.41986233 -18.82218859 49.33540687 -16.4453125 43.06640625 C-16.10249237 42.14842758 -15.75967224 41.23044891 -15.40646362 40.28465271 C-14.31820628 37.37514771 -13.22162154 34.46886124 -12.125 31.5625 C-11.39661331 29.61673182 -10.66874427 27.67076979 -9.94140625 25.72460938 C-6.71514423 17.11217367 -3.43747016 8.53077742 0 0 Z " fill="#04AB17" transform="translate(272,344)"/>
<path d="M0 0 C4.73307336 4.36998828 7.38688657 9.85087742 8.26171875 16.1953125 C8.53210674 24.23236254 7.50901579 29.97357668 1.9765625 35.90625 C-4.97810152 42.40792824 -11.37798472 43.46485008 -20.76953125 43.31640625 C-27.13215951 42.61106346 -30.92979195 39.55555983 -35.0625 34.875 C-40.32391076 27.60187336 -40.25056546 19.6664002 -39.1875 10.9375 C-38.09491412 7.58657814 -36.65027415 5.43121352 -34.1875 2.9375 C-33.63320313 2.36644531 -33.07890625 1.79539062 -32.5078125 1.20703125 C-22.89746587 -7.78398193 -10.53563076 -6.81717285 0 0 Z " fill="#06AC19" transform="translate(391.1875,365.0625)"/>
<path d="M0 0 C6.04478848 3.35928532 9.5272173 8.5816519 11.6875 15.0625 C11.6875 18.3625 11.6875 21.6625 11.6875 25.0625 C0.7975 25.0625 -10.0925 25.0625 -21.3125 25.0625 C-18.43423199 33.70110517 -18.43423199 33.70110517 -14.3125 36.0625 C-9.31976409 36.52479036 -6.31259315 36.14828614 -2.3125 33.0625 C-1.6525 32.0725 -0.9925 31.0825 -0.3125 30.0625 C2.2890625 29.76953125 2.2890625 29.76953125 5.3125 29.875 C6.81683594 29.91560547 6.81683594 29.91560547 8.3515625 29.95703125 C9.12242187 29.99183594 9.89328125 30.02664063 10.6875 30.0625 C9.66921452 36.02098234 7.51314379 39.68395265 2.625 43.375 C-4.03626596 47.2016847 -12.08046219 46.97879384 -19.54296875 45.671875 C-24.72748058 43.82111105 -28.33985945 39.51342667 -31.3125 35.0625 C-32.5406748 32.39964313 -33.02210063 29.97167939 -33.3125 27.0625 C-33.4053125 26.20527344 -33.498125 25.34804688 -33.59375 24.46484375 C-33.99752974 17.28765886 -32.43504331 11.96217977 -28.3125 6.0625 C-20.67523257 -2.34023387 -10.53728948 -4.61603316 0 0 Z " fill="#07AC1A" transform="translate(158.3125,361.9375)"/>
<path d="M0 0 C4.79943307 4.0528546 6.76360367 7.3332105 7.31884766 13.59692383 C7.36006661 14.96670718 7.39132257 16.33681655 7.4140625 17.70703125 C7.43342865 18.43242599 7.4527948 19.15782074 7.4727478 19.90519714 C7.53222108 22.20751422 7.57879845 24.50988219 7.625 26.8125 C7.66320958 28.37957832 7.70226303 29.94663631 7.7421875 31.51367188 C7.83789563 35.34228152 7.92204448 39.17098942 8 43 C4.04 43 0.08 43 -4 43 C-4.33 42.34 -4.66 41.68 -5 41 C-5.886875 41.66 -6.77375 42.32 -7.6875 43 C-13.07847491 46.0695551 -18.9957235 45.90295675 -25 45 C-29.03011826 43.10479569 -31.3222156 40.07142348 -33 36 C-33.70031352 31.06523261 -33.51450496 27.08837587 -31.375 22.5625 C-28.27002596 19.21239643 -25.38451117 17.2498524 -20.73291016 16.76245117 C-18.19031542 16.70551992 -15.66705691 16.73784622 -13.125 16.8125 C-12.24585938 16.82603516 -11.36671875 16.83957031 -10.4609375 16.85351562 C-8.30702448 16.88863377 -6.15342996 16.94243306 -4 17 C-4.42492126 15.70414084 -4.86545882 14.4133956 -5.3125 13.125 C-5.55613281 12.40570313 -5.79976562 11.68640625 -6.05078125 10.9453125 C-6.96335547 8.66005095 -6.96335547 8.66005095 -10 7 C-14.20056249 6.51580546 -14.20056249 6.51580546 -17.8125 8.375 C-19.06987173 10.00086797 -19.06987173 10.00086797 -20 12 C-23.63 12 -27.26 12 -31 12 C-30.62688803 6.77643236 -28.89245821 3.43631076 -25 0 C-17.21198581 -4.67280851 -7.81896485 -4.53499961 0 0 Z " fill="#06AC18" transform="translate(208,363)"/>
<path d="M0 0 C3.96 0 7.92 0 12 0 C12 17.16 12 34.32 12 52 C21.57 52 31.14 52 41 52 C41 55.3 41 58.6 41 62 C27.47 62 13.94 62 0 62 C0 41.54 0 21.08 0 0 Z " fill="#00AA13" transform="translate(81,344)"/>
<path d="M0 0 C1.03930664 0.02030273 1.03930664 0.02030273 2.09960938 0.04101562 C3.79591265 0.07611155 5.49181136 0.12991057 7.1875 0.1875 C8.25924763 3.83938082 7.95161467 6.45182828 7.1875 10.1875 C2.7325 10.6825 2.7325 10.6825 -1.8125 11.1875 C-2.4725 13.4975 -3.1325 15.8075 -3.8125 18.1875 C-0.5125 18.1875 2.7875 18.1875 6.1875 18.1875 C6.1875 21.4875 6.1875 24.7875 6.1875 28.1875 C2.8875 28.1875 -0.4125 28.1875 -3.8125 28.1875 C-3.8125 40.0675 -3.8125 51.9475 -3.8125 64.1875 C-7.7725 64.1875 -11.7325 64.1875 -15.8125 64.1875 C-15.8125 52.3075 -15.8125 40.4275 -15.8125 28.1875 C-18.1225 28.1875 -20.4325 28.1875 -22.8125 28.1875 C-22.8125 24.8875 -22.8125 21.5875 -22.8125 18.1875 C-20.5025 18.1875 -18.1925 18.1875 -15.8125 18.1875 C-15.84730469 17.52363281 -15.88210937 16.85976563 -15.91796875 16.17578125 C-16.19804334 7.04001484 -16.19804334 7.04001484 -12.8125 3.1875 C-8.64558483 0.016355 -5.0615078 -0.18889838 0 0 Z " fill="#07AC19" transform="translate(243.8125,342.8125)"/>
<path d="M0 0 C4.62 0 9.24 0 14 0 C15.28861758 3.89397733 16.57257982 7.78904417 17.84521484 11.68823242 C18.27909133 13.01299549 18.71558406 14.33690478 19.15478516 15.65991211 C19.78722576 17.5665556 20.40935408 19.47660986 21.03125 21.38671875 C21.40830078 22.53358154 21.78535156 23.68044434 22.17382812 24.86206055 C22.93402042 27.74939849 23.17470421 30.03730784 23 33 C23.66 33 24.32 33 25 33 C25.10570312 32.2265625 25.21140625 31.453125 25.3203125 30.65625 C26.21445687 25.84636994 27.53090972 21.20103772 28.875 16.5 C29.13152344 15.57574219 29.38804687 14.65148437 29.65234375 13.69921875 C31.03691769 8.83581582 32.53829911 4.42221717 35 0 C38.96 0 42.92 0 47 0 C46.33935782 3.30321089 45.75493386 5.94965229 44.6171875 9.02416992 C44.3402002 9.77812546 44.06321289 10.53208099 43.77783203 11.30888367 C43.33093018 12.50756828 43.33093018 12.50756828 42.875 13.73046875 C42.56804199 14.56210037 42.26108398 15.39373199 41.94482422 16.25056458 C41.29763206 18.00191318 40.64866913 19.75260831 39.99804688 21.50268555 C39.00009503 24.18724437 38.00739044 26.87369719 37.015625 29.56054688 C36.38572021 31.26313317 35.75552204 32.96561095 35.125 34.66796875 C34.82706543 35.47316452 34.52913086 36.27836029 34.22216797 37.10795593 C32.1174681 42.76506379 32.1174681 42.76506379 31 45 C26.38 45 21.76 45 17 45 C13.49130923 36.70207439 10.16359543 28.35086652 6.97802734 19.92431641 C6.23981148 17.97306979 5.49701602 16.02360612 4.75390625 14.07421875 C4.27837398 12.82041557 3.80310357 11.56651304 3.328125 10.3125 C2.9043457 9.19488281 2.48056641 8.07726562 2.04394531 6.92578125 C1 4 1 4 0 0 Z " fill="#05AB18" transform="translate(304,361)"/>
<path d="M0 0 C4.2060812 1.85850099 5.96055978 3.93264182 8 8 C8.7866975 13.26591208 9.15534979 19.02840201 6.125 23.625 C2.24780702 27.95833333 2.24780702 27.95833333 -0.20703125 28.37109375 C-7.27014738 28.5511132 -7.27014738 28.5511132 -11.0625 25.6875 C-13.88304356 21.77513312 -14.17942409 18.84182355 -14.25 14.125 C-14.28867187 12.58199219 -14.28867187 12.58199219 -14.328125 11.0078125 C-13.95379335 7.57643904 -13.02192498 5.76863109 -11 3 C-7.32420329 0.11897014 -4.6332435 -0.57915544 0 0 Z " fill="#FAFDFA" transform="translate(378,370)"/>
<path d="M0 0 C0.66 0 1.32 0 2 0 C3.33834986 3.78991493 4.66982663 7.58220836 6 11.375 C6.3815625 12.45523437 6.763125 13.53546875 7.15625 14.6484375 C7.5171875 15.6796875 7.878125 16.7109375 8.25 17.7734375 C8.58515625 18.72653809 8.9203125 19.67963867 9.265625 20.66162109 C10 23 10 23 10 25 C4.06 25 -1.88 25 -8 25 C-5.80536765 16.45248454 -3.05452766 8.27016382 0 0 Z " fill="#EFF9F0" transform="translate(278,358)"/>
<path d="M0 0 C1.61648437 0.04060547 1.61648437 0.04060547 3.265625 0.08203125 C4.08546875 0.11683594 4.9053125 0.15164063 5.75 0.1875 C6.16271158 4.39715814 6.17484735 6.54337659 3.8125 10.125 C-0.17622648 12.81128518 -3.54580032 13.06549405 -8.25 12.1875 C-10.25 10.1875 -10.25 10.1875 -10.625 6.75 C-10.25 3.1875 -10.25 3.1875 -8.6171875 1.4765625 C-5.57200291 -0.18170634 -3.44631127 -0.11237972 0 0 Z " fill="#F6FCF7" transform="translate(197.25,386.8125)"/>
<path d="M0 0 C3.66238406 0.52319772 5.59086508 1.2558102 8.5 3.5 C10.5 6.5 10.5 6.5 10.5 9.5 C3.9 9.5 -2.7 9.5 -9.5 9.5 C-8.09464287 3.87857147 -5.92270488 0.8461007 0 0 Z " fill="#F5FBF6" transform="translate(147.5,368.5)"/>
</svg>
